<?xml version="1.0" encoding="UTF-8"?>
<svg version="1.1" xmlns="http://www.w3.org/2000/svg" width="150" height="150">
<path d="M0 0 C0.99 0 1.98 0 3 0 C3.44730469 0.9178125 3.89460937 1.835625 4.35546875 2.78125 C8.33864539 10.93445698 8.33864539 10.93445698 12.9375 18.75 C15 22 15 22 15 24 C15.66 24 16.32 24 17 24 C18.33619621 25.65770921 19.59462139 27.37852016 20.8125 29.125 C21.53179688 30.13304688 22.25109375 31.14109375 22.9921875 32.1796875 C23.98605469 33.57574219 23.98605469 33.57574219 25 35 C30.81692614 43.01978575 38.24883063 48.83536409 48 51 C48.66 51 49.32 51 50 51 C50.87256348 39.87481569 46.24579166 29.82851045 41.28686523 20.11303711 C39.53192836 16.58738757 38.52913957 13.94960542 39 10 C40.14555801 7.40340185 41.36371561 6.32011824 43.88671875 5.05078125 C53.52690526 1.33266394 61.8435976 3.9901703 71 8 C74.73006306 9.89515005 78.38150724 11.90029434 82 14 C82 14.66 82 15.32 82 16 C82.680625 16.20625 83.36125 16.4125 84.0625 16.625 C87.97009851 18.45408866 90.83857939 21.10279034 94 24 C93.34 24.66 92.68 25.32 92 26 C91.02160156 25.49339844 91.02160156 25.49339844 90.0234375 24.9765625 C80.99145753 20.13086283 80.99145753 20.13086283 71 19 C69.515 19.495 69.515 19.495 68 20 C68.26035937 31.81084776 72.62159856 41.43498492 77.9296875 51.80078125 C80.74802756 57.59175005 81.96387443 63.61288026 81 70 C78.9949912 73.8026029 77.57313738 75.61790841 74 78 C61.03799254 80.46278142 47.45390141 72.74445252 37 66 C36.31550781 65.58234375 35.63101563 65.1646875 34.92578125 64.734375 C33.25 63.6875 33.25 63.6875 31 62 C31 61.34 31 60.68 31 60 C30.43925781 59.76152344 29.87851562 59.52304688 29.30078125 59.27734375 C20.65750647 54.47878542 14.72526277 45.40854452 10 37 C9.30777344 35.78183594 9.30777344 35.78183594 8.6015625 34.5390625 C2.69453873 23.47681799 0.37414025 12.47757725 0 0 Z " fill="#1273B5" transform="translate(4,37)"/>
<path d="M0 0 C2.8125 -0.5 2.8125 -0.5 6 0 C7.71899772 1.61263833 9.37791509 3.28991342 11 5 C29.14181461 22.76699853 29.14181461 22.76699853 52.75 29.28125 C56.31154562 28.8360568 58.34566431 27.33834335 61 25 C62.04349839 23.36021682 63.05607981 21.69905634 64 20 C64.66 20 65.32 20 66 20 C69.02602058 25.68891869 69.49362324 29.715293 68 36 C65.29585834 43.03076831 60.37160483 47.20415031 54 51 C53.34515625 51.12761719 52.6903125 51.25523438 52.015625 51.38671875 C49.36963709 52.19179647 48.51942742 53.4088212 46.8125 55.5625 C37.17985005 66.96316797 23.24832996 77.82671617 7.8828125 79.1875 C-10.09659001 80.36647721 -25.151142 76.28660018 -40 66 C-40.66 65.01 -41.32 64.02 -42 63 C-38.18243949 61.72747983 -36.921414 62.57008636 -33.1875 63.9375 C-19.44435359 68.30064493 -4.68622429 66.14861742 8.375 60.25 C14.84231093 56.59770164 21.68828706 52.30348869 24 45 C23.50371094 44.6596875 23.00742188 44.319375 22.49609375 43.96875 C17.20020166 40.19027671 13.02125176 36.10389647 9 31 C8.38898438 30.22527344 7.77796875 29.45054688 7.1484375 28.65234375 C1.57419917 21.16863229 -3.19971389 12.59771109 -2 3 C-1.34 2.01 -0.68 1.02 0 0 Z " fill="#1565A9" transform="translate(77,57)"/>
<path d="M0 0 C10.66962046 8.30764341 19.21652591 18.56197217 22.75 31.8125 C24.25175961 50.95993503 24.25175961 50.95993503 18.9375 57.5625 C14.6950101 59.63861208 11.49653609 59.1895994 7 58 C3.02963844 56.41047917 -0.44680471 54.36879686 -4 52 C-4.625 49.49609375 -4.625 49.49609375 -5 46.4375 C-7.04373455 32.60932835 -13.14903973 19.59847038 -24.609375 11.0546875 C-36.86746523 2.96163897 -48.10107375 0.48449698 -62.8125 3.1875 C-67.90705643 4.33430368 -72.45505837 5.83115586 -77.125 8.1484375 C-79.6845678 9.31090787 -82.21818884 9.71468603 -85 10 C-83.54619541 6.46266797 -81.72555217 4.71986861 -78.6875 2.4375 C-77.92824219 1.85871094 -77.16898438 1.27992187 -76.38671875 0.68359375 C-52.67967984 -16.03937478 -23.63565616 -16.43726688 0 0 Z " fill="#1088C7" transform="translate(114,26)"/>
<path d="M0 0 C16.71169624 -0.44465711 31.68873413 5.7793718 44 17 C44 17.66 44 18.32 44 19 C40.82166979 17.53419474 38.17656437 15.71476626 35.375 13.625 C30.48659891 10.15697504 25.64309344 7.94691665 20 6 C19.030625 5.62875 18.06125 5.2575 17.0625 4.875 C13.24627651 3.78465043 9.4078649 3.16968308 5.48828125 2.5625 C3 2 3 2 0 0 Z " fill="#1A95CD" transform="translate(76,14)"/>
<path d="M0 0 C0.66 0.33 1.32 0.66 2 1 C0.35 2.65 -1.3 4.3 -3 6 C-1.68 6 -0.36 6 1 6 C1 6.99 1 7.98 1 9 C-0.87144695 9.82065069 -2.74734336 10.6311584 -4.625 11.4375 C-6.19121094 12.11619141 -6.19121094 12.11619141 -7.7890625 12.80859375 C-10.88685251 13.95801705 -13.73210054 14.57311223 -17 15 C-15.54619541 11.46266797 -13.72555217 9.71986861 -10.6875 7.4375 C-9.88699219 6.83550781 -9.08648437 6.23351562 -8.26171875 5.61328125 C-5.91144976 3.93683722 -3.51623214 2.41538058 -1 1 C-0.67 0.67 -0.34 0.34 0 0 Z " fill="#1693CA" transform="translate(46,21)"/>
<path d="M0 0 C0.99 0 1.98 0 3 0 C4.98 4.62 6.96 9.24 9 14 C8.34 14 7.68 14 7 14 C6.67 13.34 6.34 12.68 6 12 C5.814375 13.6396875 5.814375 13.6396875 5.625 15.3125 C5 19 5 19 3 22 C2.49311395 19.45953542 1.99433126 16.91791124 1.5 14.375 C1.35691406 13.66214844 1.21382813 12.94929688 1.06640625 12.21484375 C0.26950574 8.07855065 -0.16034056 4.23566321 0 0 Z " fill="#1685BF" transform="translate(4,37)"/>
<path d="M0 0 C3.07921132 -0.25660094 5.21136993 -0.39431504 8 1 C8 1.99 8 2.98 8 4 C5.03 3.505 5.03 3.505 2 3 C1.34 5.97 0.68 8.94 0 12 C0.66 12 1.32 12 2 12 C2.33 14.64 2.66 17.28 3 20 C0.36001029 18.68000515 0.29985024 17.63086688 -0.625 14.875 C-1.90308895 10.80068599 -2.4294612 7.29461205 -2 3 C-1.34 2.01 -0.68 1.02 0 0 Z " fill="#1B7DB7" transform="translate(77,57)"/>
<path d="M0 0 C1.77111844 0.47811177 3.54188483 0.9575278 5.3125 1.4375 C6.29863281 1.70433594 7.28476562 1.97117187 8.30078125 2.24609375 C10.21517526 2.78079425 12.11433615 3.37144538 14 4 C14 4.66 14 5.32 14 6 C13.34 6 12.68 6 12 6 C12 6.99 12 7.98 12 9 C8.50155614 8.36610765 6.15913124 6.94822306 3.25 4.9375 C2.45078125 4.38964844 1.6515625 3.84179688 0.828125 3.27734375 C0.22484375 2.85582031 -0.3784375 2.43429688 -1 2 C-0.67 1.34 -0.34 0.68 0 0 Z " fill="#205A9C" transform="translate(36,119)"/>
<path d="M0 0 C-0.33 0.66 -0.66 1.32 -1 2 C-1.94359375 1.7834375 -1.94359375 1.7834375 -2.90625 1.5625 C-12.35629163 -0.81477305 -12.35629163 -0.81477305 -21.49609375 1.34375 C-23.73222515 2.82287592 -25.88419823 4.3543764 -28 6 C-24.83949314 -0.32101373 -24.83949314 -0.32101373 -21 -1.6875 C-13.66936161 -3.99141492 -7.13160049 -2.27604271 0 0 Z " fill="#148ACC" transform="translate(71,43)"/>
<path d="M0 0 C0.66 0 1.32 0 2 0 C4.92004922 5.48969254 5.74076947 9.90076262 4 16 C3.34 16.33 2.68 16.66 2 17 C2 13.37 2 9.74 2 6 C1.34 6 0.68 6 0 6 C-0.99 6 -1.98 6 -3 6 C-1.125 1.125 -1.125 1.125 0 0 Z " fill="#1B72B5" transform="translate(141,77)"/>
<path d="M0 0 C1.1446875 0.2475 1.1446875 0.2475 2.3125 0.5 C7.22145849 1.16562149 12.05435114 1.07920078 17 1 C16.67 1.99 16.34 2.98 16 4 C4.1310267 4.56122991 4.1310267 4.56122991 0 1 C0 0.67 0 0.34 0 0 Z " fill="#2071AE" transform="translate(117,85)"/>
<path d="M0 0 C4.41889613 1.35021826 6.34345343 3.26115668 9 7 C8.01 7.495 8.01 7.495 7 8 C4.8359375 7.00390625 4.8359375 7.00390625 2.375 5.5625 C1.55773437 5.08941406 0.74046875 4.61632813 -0.1015625 4.12890625 C-0.72804688 3.75636719 -1.35453125 3.38382813 -2 3 C-1.34 2.67 -0.68 2.34 0 2 C0 1.34 0 0.68 0 0 Z " fill="#307AA9" transform="translate(89,55)"/>
<path d="M0 0 C3.465 1.485 3.465 1.485 7 3 C7 3.66 7 4.32 7 5 C7.99 5.33 8.98 5.66 10 6 C10 6.99 10 7.98 10 9 C9.01 9.33 8.02 9.66 7 10 C6.01 9.34 5.02 8.68 4 8 C4.33 7.01 4.66 6.02 5 5 C3.7625 4.319375 3.7625 4.319375 2.5 3.625 C1.675 3.08875 0.85 2.5525 0 2 C0 1.34 0 0.68 0 0 Z " fill="#1982BE" transform="translate(79,48)"/>
<path d="M0 0 C0.99 0 1.98 0 3 0 C5.125 4.625 5.125 4.625 4 8 C3.67 7.67 3.34 7.34 3 7 C2.34 7.66 1.68 8.32 1 9 C0.67 6.03 0.34 3.06 0 0 Z " fill="#3889AD" transform="translate(4,37)"/>
<path d="M0 0 C2.31 0.66 4.62 1.32 7 2 C6.67 3.32 6.34 4.64 6 6 C2.34683329 4.75023244 1.21934164 4.32901247 -1 1 C-0.67 0.67 -0.34 0.34 0 0 Z " fill="#38618E" transform="translate(36,119)"/>
<path d="M0 0 C0.99 0.33 1.98 0.66 3 1 C3 1.99 3 2.98 3 4 C3.66 4.33 4.32 4.66 5 5 C5 7.31 5 9.62 5 12 C4.34 12 3.68 12 3 12 C2.01 8.04 1.02 4.08 0 0 Z " fill="#197DB9" transform="translate(106,57)"/>
<path d="M0 0 C3 1 3 1 4.203125 2.7421875 C4.54859375 3.44601563 4.8940625 4.14984375 5.25 4.875 C5.60578125 5.57367188 5.9615625 6.27234375 6.328125 6.9921875 C7 9 7 9 6 12 C4.99466333 10.37829621 3.99588093 8.75252763 3 7.125 C2.443125 6.22007813 1.88625 5.31515625 1.3125 4.3828125 C0 2 0 2 0 0 Z " fill="#187EBB" transform="translate(44,53)"/>
<path d="M0 0 C0.66 0 1.32 0 2 0 C0.63016497 3.16115776 0.0109362 3.9927092 -3 6 C-6.1875 6.125 -6.1875 6.125 -9 6 C-8.67 5.34 -8.34 4.68 -8 4 C-6.02 4 -4.04 4 -2 4 C-1.34 2.68 -0.68 1.36 0 0 Z " fill="#1277BC" transform="translate(133,79)"/>
<path d="M0 0 C6 6 6 6 6.0625 8.5625 C6.041875 9.366875 6.02125 10.17125 6 11 C4.5 9 4.5 9 3 7 C2.443125 6.319375 1.88625 5.63875 1.3125 4.9375 C0 3 0 3 0 0 Z " fill="#1982BA" transform="translate(100,46)"/>
<path d="M0 0 C1.4800841 0.11362262 2.95910074 0.24122908 4.4375 0.375 C5.26121094 0.44460937 6.08492188 0.51421875 6.93359375 0.5859375 C7.95646484 0.79089844 7.95646484 0.79089844 9 1 C9.33 1.66 9.66 2.32 10 3 C6.37 3 2.74 3 -1 3 C-0.67 2.01 -0.34 1.02 0 0 Z " fill="#1F5598" transform="translate(68,133)"/>
<path d="M0 0 C0.33 0.66 0.66 1.32 1 2 C-0.98567708 1.96744792 -2.97135417 1.93489583 -4.95703125 1.90234375 C-7.20305461 1.91736783 -7.20305461 1.91736783 -10 3 C-9.67 2.01 -9.34 1.02 -9 0 C-5.88173308 -1.55913346 -3.32926126 -0.66585225 0 0 Z " fill="#1985BF" transform="translate(82,54)"/>
<path d="M0 0 C1.32 0 2.64 0 4 0 C4 0.99 4 1.98 4 3 C2.02 3.33 0.04 3.66 -2 4 C-1.34 2.68 -0.68 1.36 0 0 Z " fill="#4C8EAB" transform="translate(31,32)"/>
</svg>
